<svg width="60" height="60" viewBox="0 0 60 60" fill="none" xmlns="http://www.w3.org/2000/svg">
<path d="M30.0027 43.3746C32.2533 43.3746 34.0777 41.5502 34.0777 39.2996C34.0777 37.049 32.2533 35.2246 30.0027 35.2246C27.7522 35.2246 25.9277 37.049 25.9277 39.2996C25.9277 41.5502 27.7522 43.3746 30.0027 43.3746Z" fill="#DF2A54"/>
<path d="M41.625 23.6H18.375C18.175 23.6 18 23.6 17.8 23.6V20.7C17.8 13.375 19.875 8.5 30 8.5C40.825 8.5 42.2 13.775 42.2 18.375C42.2 19.35 42.975 20.125 43.95 20.125C44.925 20.125 45.7 19.35 45.7 18.375C45.7 9.5 40.425 5 30 5C15.925 5 14.3 13.95 14.3 20.7V23.825C7.3 24.7 5 28.25 5 36.975V41.625C5 51.875 8.125 55 18.375 55H41.625C51.875 55 55 51.875 55 41.625V36.975C55 26.725 51.875 23.6 41.625 23.6ZM30 46.85C25.825 46.85 22.45 43.45 22.45 39.3C22.45 35.125 25.85 31.75 30 31.75C34.15 31.75 37.55 35.15 37.55 39.3C37.55 43.475 34.175 46.85 30 46.85Z" fill="#DF2A54"/>
</svg>
